<svg xmlns="http://www.w3.org/2000/svg" viewBox="0 0 1000 700"><defs><linearGradient id="sky" x2="0" y2="1"><stop stop-color="#0f2534"/><stop offset="1" stop-color="#193e43"/></linearGradient><radialGradient id="glow"><stop stop-color="#88d5b6" stop-opacity=".19"/><stop offset="1" stop-color="#88d5b6" stop-opacity="0"/></radialGradient></defs><rect width="1000" height="700" fill="url(#sky)"/><ellipse cx="510" cy="400" rx="470" ry="330" fill="url(#glow)"/><g fill="none" stroke="#88b8ae" stroke-opacity=".13" stroke-width="2"><path d="M70 580V220Q70 55 250 55H750Q930 55 930 220V580Z"/><path d="M280 580V57M500 580V55M720 580V57M71 275H929M71 445H929"/><path d="M0 600H1000M0 620H1000M0 670H1000"/></g><g fill="#ccd5b5" opacity=".58"><circle cx="139" cy="150" r="2"/><circle cx="222" cy="217" r="1"/><circle cx="398" cy="102" r="1.5"/><circle cx="633" cy="145" r="2"/><circle cx="842" cy="121" r="1.6"/><circle cx="772" cy="333" r="1.8"/><circle cx="147" cy="367" r="1.3"/><circle cx="893" cy="385" r="1"/></g><path d="M811 169A32 32 0 1 1 777 127A26 26 0 0 0 811 169Z" fill="#e9d69e" opacity=".6"/><g fill="#0b242c" opacity=".65"><path d="M0 586Q35 462 74 456Q59 517 84 554Q85 485 122 479Q110 548 138 586Z"/><path d="M861 587Q880 491 918 482Q905 544 931 565Q937 464 977 458Q957 536 1000 587Z"/></g></svg>