<svg width="512" height="512" version="1.1" viewBox="0 0 135.47 135.47" xmlns="http://www.w3.org/2000/svg" xmlns:xlink="http://www.w3.org/1999/xlink">
  <g>
    <path d="m67.732 1.5875c-13.907 0-26.821 4.306-37.479 11.656l4.5933 4.4596c9.4327-6.207 20.732-9.8165 32.885-9.8165 33.089-4e-6 59.846 26.756 59.846 59.845 0 15.288-5.7122 29.225-15.122 39.795l4.4964 4.3653c10.521-11.716 16.926-27.199 16.926-44.16 0-36.494-29.653-66.145-66.147-66.145zm-43.921 16.712c-13.629 12.121-22.224 29.785-22.224 49.433-2e-6 26.265 15.36 48.988 37.575 59.661v-7.046l6.45e-4 6.5e-4v-90.518h-6.6158v86.339c-14.952-10.872-24.66-28.506-24.66-48.437 0-17.983 7.9028-34.095 20.43-45.059zm20.854 11.53v7.6073h19.774c18.772 0.15917 27.167 10.106 27.167 22.518 0 12.968-12.586 25.981-35.731 25.981h-1.9844l37.778 36.674c-7.3277 3.1951-15.423 4.9667-23.937 4.9667-8.1787 0-15.97-1.635-23.067-4.5959v6.7534c7.1841 2.6788 14.956 4.1438 23.067 4.1438 10.305 0 20.065-2.3648 28.766-6.5803 2.123-1.0286 4.1826-2.1671 6.172-3.4087l-33.234-32.264c16.789-3.0901 30.148-12.566 30.148-31.671 0-18.292-13.811-29.95-35.122-30.123v-0.0026zm35.126 64.178 36.461 35.396h7.9394l-36.461-35.396z" stop-color="#000000" stroke-width="1.25"/>
  </g>
</svg>
