<?xml version="1.0" encoding="UTF-8" standalone="no"?>
<!-- Generator: Gravitdesign.com --><svg xmlns="http://www.w3.org/2000/svg" xmlns:xlink="http://www.w3.org/1999/xlink" style="isolation:isolate" viewBox="0 0 256 256"><defs><clipPath id="_clipPath_WarRQbC6YwlpD4stL5Evl4QslgpSWOMx"><rect width="256" height="256"/></clipPath></defs><g clip-path="url(#_clipPath_WarRQbC6YwlpD4stL5Evl4QslgpSWOMx)"><path d=" M 226.211 77.77 C 207.91 59.413 182.272 47.963 154.291 47.98 L 110.702 47.98 L 110.702 4.602 L 2.757 114.403 L 110.701 114.403 L 154.291 114.403 C 164.142 114.419 172.753 118.303 179.24 124.732 C 185.678 131.227 189.562 139.838 189.578 149.689 C 189.562 159.54 185.678 168.151 179.24 174.638 C 172.753 181.076 164.142 184.959 154.291 184.976 L 54 184.976 L 144 251.398 L 154.291 251.398 C 182.272 251.415 207.911 239.965 226.211 221.609 C 244.568 203.308 256.017 177.67 256 149.688 C 256.017 121.708 244.568 96.07 226.211 77.77 Z " fill="rgb(50,50,50)"/></g></svg>